<?xml version="1.0" encoding="iso-8859-1"?>
<!-- Generator: Adobe Illustrator 18.1.1, SVG Export Plug-In . SVG Version: 6.00 Build 0)  -->
<svg version="1.1" id="Capa_1" xmlns="http://www.w3.org/2000/svg" xmlns:xlink="http://www.w3.org/1999/xlink" x="0px" y="0px"
	 viewBox="0 0 66.928 66.928" style="enable-background:new 0 0 66.928 66.928;" xml:space="preserve">
<g>
	<g>
		<path style="fill:#010002;" d="M33.464,8.746c-6.858,0-12.416,5.558-12.416,12.417c0,6.857,5.558,12.413,12.416,12.413
			s12.414-5.556,12.414-12.413C45.878,14.305,40.322,8.746,33.464,8.746z M31.183,24.18c-0.072-0.226-1.228-3.776-1.409-4.33
			l-0.006-0.019l-0.015-0.041l3.424-2.421l0.276-0.196l0.276,0.196c0.838,0.595,3.25,2.294,3.421,2.421l-0.011,0.041l-0.007,0.019
			c-0.182,0.554-1.339,4.104-1.413,4.33H31.183z M31.644,24.549l-2.072,2.921l-0.285-0.45l1.676-2.471L31.644,24.549L31.644,24.549z
			 M33.178,16.916v-3.382l0.276,0.106l0.276-0.106v3.382l-0.276-0.196L33.178,16.916z M35.885,24.549l1.755,2.466l-0.019,0.006
			l-0.338,0.48l-2.074-2.951L35.885,24.549L35.885,24.549z M37.363,20.342l0.209-0.652l2.832-0.858l0.357,0.438L37.363,20.342z
			 M40.709,14.519l-0.059,0.795c-1.028-1.301-2.4-2.326-3.979-2.923l0.743-0.291C38.68,12.672,39.796,13.496,40.709,14.519z
			 M30.628,10.183l0.331-0.648c0.788-0.166,1.604-0.258,2.444-0.258c0.838,0,1.652,0.092,2.443,0.258l0.361,0.654l0.904,1.633
			l-0.183,0.069l-0.794,0.312c-0.809,0.315-1.896,0.737-2.403,0.93l-0.277,0.113l-0.276-0.114c-0.517-0.196-1.631-0.631-2.451-0.95
			l-0.799-0.313l-0.137-0.047L30.628,10.183z M29.432,12.076l0.747,0.291c-1.55,0.58-2.904,1.566-3.935,2.826l-0.052-0.782
			C27.094,13.426,28.199,12.627,29.432,12.076z M26.493,18.809l2.842,0.883l0.21,0.652l-3.365-1.105L26.493,18.809z M23.645,21.76
			l-1.413-1.363l-0.518-0.504c0.161-1.672,0.674-3.241,1.463-4.637l0.719-0.119c0.779-0.14,1.747-0.306,1.956-0.341v0.006
			l0.057,0.836c0.072,1.021,0.184,2.609,0.208,2.994l0.005,0.084l-0.312,0.401c-0.417,0.517-1.145,1.428-1.637,2.048l-0.496,0.625
			L23.645,21.76z M23.704,22.33l0.008,0.01l0.488-0.616c0.118,1.581,0.637,3.053,1.457,4.312l-0.738-0.155
			C24.282,24.79,23.878,23.633,23.704,22.33z M29.497,31.504l-0.657,0.338c-1.531-0.648-2.891-1.614-4.015-2.812l0.115-0.705
			l0.302-1.902l0.02-0.108l0.717,0.196c0.996,0.265,2.673,0.721,3.013,0.817l0.058,0.011l0.253,0.405
			c0.325,0.513,0.897,1.411,1.317,2.083l0.447,0.698l0.088,0.135L29.497,31.504z M33.402,30.809c-0.624,0-1.237-0.063-1.83-0.174
			l-0.416-0.658c0.718,0.181,1.472,0.276,2.246,0.276c0.817,0,1.613-0.106,2.368-0.312l-0.423,0.672
			C34.717,30.74,34.068,30.809,33.402,30.809z M38.049,31.804l-0.661-0.333c-0.688-0.339-1.459-0.726-1.631-0.814l0.104-0.161
			l0.449-0.719l1.543-2.442l2.941-0.795l0.831-0.226l0.022-0.004l0.334,1.868l0.129,0.703C40.99,30.13,39.607,31.128,38.049,31.804z
			 M41.902,25.861l-0.775,0.209c0.852-1.297,1.384-2.824,1.486-4.467l0.498,0.627C42.949,23.538,42.529,24.766,41.902,25.861z
			 M43.231,21.789l-0.07-0.09l-0.527-0.658l-1.533-1.925l-0.313-0.401l0.005-0.084l0.198-2.861l0.061-0.844l0.01-0.131
			c0.193,0.035,1.076,0.188,1.836,0.317l0.719,0.125c0.813,1.426,1.334,3.035,1.481,4.75l-0.519,0.504L43.231,21.789z M33.463,0
			C21.821,0,12.381,9.439,12.381,21.082c0,11.647,21.082,45.846,21.082,45.846s21.085-34.199,21.085-45.846
			C54.548,9.439,45.107,0,33.463,0z M33.463,37.396c-8.995,0-16.312-7.319-16.312-16.315c0-8.992,7.317-16.312,16.312-16.312
			c8.993,0,16.316,7.32,16.316,16.312C49.779,30.078,42.456,37.396,33.463,37.396z"/>
	</g>
</g>
<g>
</g>
<g>
</g>
<g>
</g>
<g>
</g>
<g>
</g>
<g>
</g>
<g>
</g>
<g>
</g>
<g>
</g>
<g>
</g>
<g>
</g>
<g>
</g>
<g>
</g>
<g>
</g>
<g>
</g>
</svg>
